<svg xmlns="http://www.w3.org/2000/svg" width="16" height="16" viewBox="0 0 24 24" fill="none">
  <path fill="white" d="M12 0C5.37 0 0 5.37 0 12c0 5.3 3.438 9.799 8.205 11.387.6.111.82-.26.82-.577v-2.234c-3.338.725-4.042-1.61-4.042-1.61-.546-1.387-1.334-1.755-1.334-1.755-1.091-.746.084-.73.084-.73 1.205.085 1.838 1.237 1.838 1.237 1.07 1.833 2.807 1.304 3.492.997.108-.775.418-1.305.762-1.605-2.665-.304-5.467-1.332-5.467-5.93 0-1.31.468-2.381 1.237-3.221-.124-.303-.535-1.523.117-3.176 0 0 1.008-.322 3.302 1.23a11.478 11.478 0 0 1 3.006-.404c1.02.005 2.047.138 3.006.404 2.292-1.552 3.297-1.23 3.297-1.23.653 1.653.242 2.873.118 3.176.772.84 1.237 1.91 1.237 3.221 0 4.61-2.807 5.623-5.479 5.92.43.372.814 1.102.814 2.222v3.293c0 .32.216.694.825.576C20.565 21.798 24 17.3 24 12c0-6.63-5.37-12-12-12z"/>
</svg>
